<?xml version="1.0" encoding="UTF-8" standalone="no"?>
<!-- Created with Inkscape (http://www.inkscape.org/) -->

<svg
   width="210mm"
   height="297mm"
   viewBox="0 0 210 297"
   version="1.1"
   id="svg1"
   inkscape:version="1.3.2 (091e20e, 2023-11-25, custom)"
   sodipodi:docname="the-portraitstone.svg"
   xmlns:inkscape="http://www.inkscape.org/namespaces/inkscape"
   xmlns:sodipodi="http://sodipodi.sourceforge.net/DTD/sodipodi-0.dtd"
   xmlns="http://www.w3.org/2000/svg"
   xmlns:svg="http://www.w3.org/2000/svg">
  <sodipodi:namedview
     id="namedview1"
     pagecolor="#ffffff"
     bordercolor="#000000"
     borderopacity="0.25"
     inkscape:showpageshadow="2"
     inkscape:pageopacity="0.0"
     inkscape:pagecheckerboard="0"
     inkscape:deskcolor="#d1d1d1"
     inkscape:document-units="mm"
     inkscape:zoom="0.5"
     inkscape:cx="521"
     inkscape:cy="-581"
     inkscape:window-width="1920"
     inkscape:window-height="991"
     inkscape:window-x="-9"
     inkscape:window-y="-9"
     inkscape:window-maximized="1"
     inkscape:current-layer="layer1"
     showgrid="false" />
  <defs
     id="defs1" />
  <g
     inkscape:label="Layer 1"
     inkscape:groupmode="layer"
     id="layer1">
    <path
       d="M 102.78189,9.3159905 C 91.367627,9.9332805 80.371317,13.818391 71.102677,20.508591 44.400431,39.782571 38.378111,77.053409 57.651305,103.75622 c 19.272952,26.70263 56.543165,32.72631 83.246605,13.45447 l 0.004,-0.003 0.003,-0.002 C 167.60608,97.930039 173.6261,60.658681 154.35112,33.957031 142.47408,17.503661 123.04487,8.2197205 102.78218,9.3156405 Z"
       style="fill:#ffffff;stroke:#000000;stroke-miterlimit:5.6;paint-order:markers stroke fill"
       id="path2"
       sodipodi:nodetypes="cscccccc" />
    <path
       sodipodi:type="star"
       style="fill:#ffffff;stroke:#000000;stroke-width:1;stroke-miterlimit:5.6;paint-order:markers stroke fill"
       id="path3"
       inkscape:flatsided="false"
       sodipodi:sides="3"
       sodipodi:cx="81.085213"
       sodipodi:cy="68.11158"
       sodipodi:r1="59.10899"
       sodipodi:r2="29.56996"
       sodipodi:arg1="0.52395869"
       sodipodi:arg2="1.5690124"
       inkscape:rounded="8.6736174e-17"
       inkscape:randomized="0"
       d="M 132.26446,97.684497 81.137963,97.681492 29.884692,97.647649 55.450542,53.372307 81.106487,9.002594 106.66713,53.28094 Z"
       inkscape:transform-center-x="0.63871804"
       inkscape:transform-center-y="-14.297914"
       transform="matrix(0.99987147,0,0,0.99987147,24.963392,0.76335518)" />
    <rect
       style="fill:#ffffff;stroke:#000000;stroke-width:0.967462;stroke-miterlimit:5.6;paint-order:markers stroke fill"
       id="rect3"
       width="47.33466"
       height="47.33466"
       x="82.373856"
       y="51.096302" />
    <path
       style="fill:#ffffff;stroke:#000000;stroke-width:1.6358;stroke-miterlimit:5.6;paint-order:markers stroke fill"
       id="path4"
       sodipodi:type="arc"
       sodipodi:cx="106.08091"
       sodipodi:cy="74.805588"
       sodipodi:rx="23.263252"
       sodipodi:ry="23.263252"
       sodipodi:start="0.94565151"
       sodipodi:end="0.94562686"
       sodipodi:arc-type="slice"
       d="M 119.69491,93.669256 A 23.263252,23.263252 0 0 1 87.217325,88.419701 23.263252,23.263252 0 0 1 92.46668,55.942087 23.263252,23.263252 0 0 1 124.94433,61.191242 23.263252,23.263252 0 0 1 119.69537,93.66892 L 106.08091,74.805588 Z" />
    <path
       d="M 104.42937,278.15873 C 93.015108,277.54144 82.018798,273.65633 72.750158,266.96613 46.047912,247.69215 40.025592,210.42131 59.298786,183.7185 78.571738,157.01587 115.84196,150.99219 142.5454,170.26403 l 0.004,0.003 0.003,0.002 c 26.70117,19.27565 32.72119,56.54701 13.44621,83.24866 -11.87704,16.45337 -31.30625,25.73731 -51.56895,24.64139 z"
       style="fill:#ffffff;stroke:#000000;stroke-miterlimit:5.6;paint-order:markers stroke fill"
       id="path2-5"
       sodipodi:nodetypes="cscccccc" />
    <path
       sodipodi:type="star"
       style="fill:#ffffff;stroke:#000000;stroke-width:1;stroke-miterlimit:5.6;paint-order:markers stroke fill"
       id="path3-2"
       inkscape:flatsided="false"
       sodipodi:sides="3"
       sodipodi:cx="81.085213"
       sodipodi:cy="68.11158"
       sodipodi:r1="59.10899"
       sodipodi:r2="29.56996"
       sodipodi:arg1="0.52395869"
       sodipodi:arg2="1.5690124"
       inkscape:rounded="8.6736174e-17"
       inkscape:randomized="0"
       d="M 132.26446,97.684497 81.137963,97.681492 29.884692,97.647649 55.450542,53.372307 81.106487,9.002594 106.66713,53.28094 Z"
       inkscape:transform-center-x="0.63871804"
       inkscape:transform-center-y="14.297918"
       transform="matrix(0.99987147,0,0,-0.99987147,26.610873,286.71136)" />
    <rect
       style="fill:#ffffff;stroke:#000000;stroke-width:0.967462;stroke-miterlimit:5.6;paint-order:markers stroke fill"
       id="rect3-2"
       width="47.33466"
       height="47.33466"
       x="84.021339"
       y="-236.37842"
       transform="scale(1,-1)" />
    <path
       style="fill:#ffffff;stroke:#000000;stroke-width:1.6358;stroke-miterlimit:5.6;paint-order:markers stroke fill"
       id="path4-2"
       sodipodi:type="arc"
       sodipodi:cx="107.72839"
       sodipodi:cy="-212.66913"
       sodipodi:rx="23.263252"
       sodipodi:ry="23.263252"
       sodipodi:start="0.94565151"
       sodipodi:end="0.94562686"
       sodipodi:arc-type="slice"
       d="m 121.34239,-193.80546 a 23.263252,23.263252 0 0 1 -32.477581,-5.24955 23.263252,23.263252 0 0 1 5.249355,-32.47762 23.263252,23.263252 0 0 1 32.477646,5.24916 23.263252,23.263252 0 0 1 -5.24895,32.47767 l -13.61447,-18.86333 z"
       transform="scale(1,-1)" />
    <path
       id="path2-51"
       style="fill:#ffffff;stroke:#000000;stroke-miterlimit:5.6;paint-order:markers stroke fill;fill-opacity:0"
       d="M 107.52987 -128.08469 C 106.27161 -128.0965 105.00892 -128.06895 103.7425 -128.00046 L 103.74199 -127.99994 C 92.327737 -127.38265 81.331416 -123.49753 72.062785 -116.80734 C 46.96822 -98.693805 40.143033 -64.686961 55.409021 -38.493258 L 158.51384 -38.493258 C 169.96834 -58.22612 169.52849 -83.664192 155.31145 -103.35907 C 144.17674 -118.78408 126.40385 -127.90748 107.52987 -128.08469 z " />
    <path
       sodipodi:type="star"
       style="fill:#ffffff;stroke:#000000;stroke-width:1;stroke-miterlimit:5.6;paint-order:markers stroke fill;fill-opacity:0"
       id="path3-6"
       inkscape:flatsided="false"
       sodipodi:sides="3"
       sodipodi:cx="81.085213"
       sodipodi:cy="68.11158"
       sodipodi:r1="59.10899"
       sodipodi:r2="29.56996"
       sodipodi:arg1="0.52395869"
       sodipodi:arg2="1.5690124"
       inkscape:rounded="8.6736174e-17"
       inkscape:randomized="0"
       d="M 132.26446,97.684497 81.137963,97.681492 29.884692,97.647649 55.450542,53.372307 81.106487,9.002594 106.66713,53.28094 Z"
       inkscape:transform-center-x="0.63871804"
       inkscape:transform-center-y="-14.297914"
       transform="matrix(0.99987147,0,0,0.99987147,25.923491,-136.55252)" />
    <rect
       style="fill:#ffffff;stroke:#000000;stroke-width:0.967462;stroke-miterlimit:5.6;paint-order:markers stroke fill;fill-opacity:0"
       id="rect3-6"
       width="47.33466"
       height="47.33466"
       x="83.333954"
       y="-86.219582" />
    <path
       d="m 105.78011,-85.739469 c -4.45289,0.241669 -8.74248,1.758112 -12.357905,4.368725 -10.415231,7.52079 -12.762533,22.060366 -5.243091,32.476571 7.519312,10.416457 22.058736,12.765853 32.476056,5.247742 l -0.0502,-0.06155 0.059,0.05483 c 10.4138,-7.523131 12.75788,-22.063522 5.23586,-32.478121 -4.63498,-6.417345 -12.2152,-10.037292 -20.1197,-9.608199 z"
       style="fill:#ffffff;fill-opacity:0;stroke:#000000;stroke-width:1.636;stroke-miterlimit:5.6;stroke-dasharray:none;paint-order:markers stroke fill"
       id="path1"
       sodipodi:nodetypes="ccccccscc" />
    <path
       id="path1-6"
       style="fill:#ffffff;fill-opacity:0;stroke:#000000;stroke-width:1.636;stroke-miterlimit:5.6;stroke-dasharray:none;paint-order:markers stroke fill"
       d="m 108.02312,-211.20532 c -4.45289,0.24167 -8.742479,1.75811 -12.357904,4.36873 -10.415231,7.52079 -12.762533,22.06036 -5.243091,32.47657 7.519312,10.41645 22.058735,12.76585 32.476055,5.24774 l -0.0502,-0.0615 0.059,0.0548 c 10.4138,-7.52313 12.75788,-22.06352 5.23586,-32.47812 -4.63498,-6.41735 -12.2152,-10.03729 -20.1197,-9.6082 z m -22.446154,-0.4801 h 47.334654 v 47.33466 H 85.576966 Z m 74.836994,47.33899 -51.11993,-0.003 -51.246677,-0.0338 25.562564,-44.26965 25.652643,-44.36401 25.55736,44.27265 z m -50.64108,-89.20411 c -1.25826,-0.0118 -2.52095,0.0157 -3.78737,0.0842 l -5.1e-4,5.2e-4 c -11.414252,0.61729 -22.410573,4.50241 -31.679204,11.1926 -25.094565,18.11354 -31.919752,52.12038 -16.653764,78.31408 H 160.75685 c 11.4545,-19.73286 11.01465,-45.17093 -3.20239,-64.86581 -11.13471,-15.42501 -28.9076,-24.54841 -47.78158,-24.72562 z"
       inkscape:export-filename="The_Portraitstone.svg"
       inkscape:export-xdpi="96"
       inkscape:export-ydpi="96" />
  </g>
</svg>
