<?xml version="1.0" encoding="UTF-8" standalone="no"?>
<!-- Created with Inkscape (http://www.inkscape.org/) -->

<svg
   width="120.88864mm"
   height="91.510902mm"
   viewBox="0 0 120.88864 91.510902"
   version="1.1"
   id="svg1"
   sodipodi:docname="The_Portraitstone.svg"
   inkscape:version="1.3.2 (091e20e, 2023-11-25, custom)"
   xmlns:inkscape="http://www.inkscape.org/namespaces/inkscape"
   xmlns:sodipodi="http://sodipodi.sourceforge.net/DTD/sodipodi-0.dtd"
   xmlns="http://www.w3.org/2000/svg"
   xmlns:svg="http://www.w3.org/2000/svg">
  <sodipodi:namedview
     id="namedview1"
     pagecolor="#ffffff"
     bordercolor="#000000"
     borderopacity="0.25"
     inkscape:showpageshadow="2"
     inkscape:pageopacity="0.0"
     inkscape:pagecheckerboard="true"
     inkscape:deskcolor="#d1d1d1"
     inkscape:document-units="mm"
     inkscape:zoom="22.627417"
     inkscape:cx="25.102291"
     inkscape:cy="349.02349"
     inkscape:window-width="1920"
     inkscape:window-height="991"
     inkscape:window-x="-9"
     inkscape:window-y="-9"
     inkscape:window-maximized="1"
     inkscape:current-layer="svg1" />
  <defs
     id="defs1" />
  <g
     id="layer1"
     transform="translate(-48.759301,254.65205)">
    <path
       id="path1-6"
       style="fill:#ffffff;fill-opacity:0;stroke:#000000;stroke-width:1.636;stroke-miterlimit:5.6;stroke-dasharray:none;paint-order:markers stroke fill"
       d="m 108.02312,-211.20532 c -4.45289,0.24167 -8.742479,1.75811 -12.357904,4.36873 -10.415231,7.52079 -12.762533,22.06036 -5.243091,32.47657 7.519312,10.41645 22.058735,12.76585 32.476055,5.24774 l -0.0502,-0.0615 0.059,0.0548 c 10.4138,-7.52313 12.75788,-22.06352 5.23586,-32.47812 -4.63498,-6.41735 -12.2152,-10.03729 -20.1197,-9.6082 z m -22.446154,-0.4801 h 47.334654 v 47.33466 H 85.576966 Z m 74.836994,47.33899 -51.11993,-0.003 -51.246677,-0.0338 25.562564,-44.26965 25.652643,-44.36401 25.55736,44.27265 z m -50.64108,-89.20411 c -1.25826,-0.0118 -2.52095,0.0157 -3.78737,0.0842 l -5.1e-4,5.2e-4 c -11.414252,0.61729 -22.410573,4.50241 -31.679204,11.1926 -25.094565,18.11354 -31.919752,52.12038 -16.653764,78.31408 H 160.75685 c 11.4545,-19.73286 11.01465,-45.17093 -3.20239,-64.86581 -11.13471,-15.42501 -28.9076,-24.54841 -47.78158,-24.72562 z" />
  </g>
</svg>
